C:\Users\jackb\Documents\projects\Masters\adult_control\InputData/emg/ng10220_crop.c3d.mot
nRows=14
nColumns=13

name C:\Users\jackb\Documents\projects\Masters\adult_control\InputData/emg/ng10220_crop.c3d.mot
datacolumns 13
datarows 14
range 3.7300000000 3.7365000000
endheader
time	soleus_r	rect_fem_r	lat_gas_r	med_gas_r	vas_lat_r	vas_med_r	bifemlh_r	semimem_r	tib_ant_r	per_brev_r	ext_dig_r	ext_hal_r
        3.7300000000	        0.0304333483	        0.0096631395	        0.0200591945	        0.0129625826	       -0.0001183532	        0.0039631542	        0.0174946403	        0.0188181708	        0.0167935143	        0.0554195484	        0.0135276786	        0.0342994940	
        3.7305000000	        0.0304333686	        0.0096631409	        0.0200591961	        0.0129625860	       -0.0001183525	        0.0039631553	        0.0174946609	        0.0188181897	        0.0167935188	        0.0554195596	        0.0135277101	        0.0342995099	
        3.7310000000	        0.0304334862	        0.0096631477	        0.0200592049	        0.0129626001	       -0.0001183492	        0.0039631603	        0.0174947841	        0.0188182893	        0.0167935403	        0.0554196133	        0.0135278606	        0.0342995866	
        3.7315000000	        0.0304339341	        0.0096631682	        0.0200592369	        0.0129626397	       -0.0001183399	        0.0039631758	        0.0174952600	        0.0188186342	        0.0167936088	        0.0554197828	        0.0135283347	        0.0342998289	
        3.7320000000	        0.0304352075	        0.0096632147	        0.0200593240	        0.0129627256	       -0.0001183202	        0.0039632117	        0.0174966225	        0.0188195369	        0.0167937726	        0.0554201863	        0.0135294606	        0.0343004073	
        3.7325000000	        0.0304381289	        0.0096633031	        0.0200595166	        0.0129628843	       -0.0001182846	        0.0039632805	        0.0174997627	        0.0188214727	        0.0167940923	        0.0554209725	        0.0135316515	        0.0343015397	
        3.7330000000	        0.0304438358	        0.0096634558	        0.0200598833	        0.0129631473	       -0.0001182263	        0.0039633985	        0.0175059214	        0.0188250667	        0.0167946325	        0.0554223010	        0.0135353495	        0.0343034639	
        3.7335000000	        0.0304537021	        0.0096637089	        0.0200605112	        0.0129635495	       -0.0001181358	        0.0039635877	        0.0175165995	        0.0188310709	        0.0167954553	        0.0554243335	        0.0135409915	        0.0343064205	
        3.7340000000	        0.0304692280	        0.0096641177	        0.0200615090	        0.0129641304	       -0.0001180007	        0.0039638767	        0.0175334165	        0.0188403434	        0.0167966210	        0.0554272392	        0.0135490129	        0.0343106542	
        3.7345000000	        0.0304919302	        0.0096647577	        0.0200630112	        0.0129649341	       -0.0001178067	        0.0039643011	        0.0175579743	        0.0188538231	        0.0167981914	        0.0554312046	        0.0135598708	        0.0343164273	
        3.7350000000	        0.0305232752	        0.0096657187	        0.0200651772	        0.0129660101	       -0.0001175377	        0.0039649014	        0.0175917741	        0.0188724927	        0.0168002332	        0.0554364389	        0.0135740694	        0.0343240287	
        3.7355000000	        0.0305646807	        0.0096670969	        0.0200681848	        0.0129674177	       -0.0001171751	        0.0039657218	        0.0176361921	        0.0188973306	        0.0168028195	        0.0554431750	        0.0135921759	        0.0343337768	
        3.7360000000	        0.0306175581	        0.0096689885	        0.0200722214	        0.0129692377	       -0.0001166962	        0.0039668108	        0.0176924992	        0.0189292729	        0.0168060282	        0.0554516701	        0.0136148269	        0.0343460183	
        3.7365000000	        0.0306833447	        0.0096714856	        0.0200774753	        0.0129715874	       -0.0001160741	        0.0039682241	        0.0177619079	        0.0189692124	        0.0168099376	        0.0554622060	        0.0136427266	        0.0343611264	
